<svg width="512" height="258.253" xmlns="http://www.w3.org/2000/svg" clip-rule="evenodd" fill-rule="evenodd" image-rendering="optimizeQuality" text-rendering="geometricPrecision" shape-rendering="geometricPrecision">

 <g>
  <title>Layer 1</title>
  <path id="svg_1" d="m472.064,38.531l0,29.616l27.836,0c3.359,0 6.379,1.378 8.549,3.551a12.13,12.13 0 0 1 3.551,8.551l0,97.757c0,3.323 -1.389,6.37 -3.561,8.541c-2.169,2.168 -5.217,3.559 -8.539,3.559l-27.836,0l0,29.616c0,21.195 -17.357,38.531 -38.531,38.531l-395.002,0c-21.206,0 -38.531,-17.323 -38.531,-38.531l0,-181.191c0,-21.183 17.367,-38.531 38.531,-38.531l395.002,0c21.216,0 38.531,17.316 38.531,38.531zm-25.461,178.423l0,-175.657c0,-8.686 -7.15,-15.835 -15.835,-15.835l-389.47,0c-8.711,0 -15.835,7.13 -15.835,15.835l0,175.657c0,8.676 7.161,15.837 15.835,15.837l389.47,0c8.697,0 15.835,-7.123 15.835,-15.837z" fill-rule="nonzero"/>
 </g>
</svg>