<svg width="122.88" height="103.53" xmlns="http://www.w3.org/2000/svg" xml:space="preserve" version="1.1">

 <g>
  <title>Layer 1</title>
  <g id="svg_1">
   <path id="svg_2" clip-rule="evenodd" fill-rule="evenodd" d="m5.47,0l111.93,0c3.01,0 5.47,2.46 5.47,5.47l0,92.58c0,3.01 -2.46,5.47 -5.47,5.47l-111.93,0c-3.01,0 -5.47,-2.46 -5.47,-5.47l0,-92.58c0,-3.01 2.46,-5.47 5.47,-5.47l0,0zm26.37,38.55l17.79,18.42l2.14,2.13l-2.12,2.16l-17.97,19.05l-5.07,-5l15.85,-16.15l-15.65,-15.56l5.03,-5.05l0,0zm62.26,40.86l-39.41,0l0,-6.84l39.41,0l0,6.84l0,0zm-86.61,-74l107.91,0c1.15,0 2.09,0.94 2.09,2.09l0,18.32l-112.09,0l0,-18.32c0,-1.15 0.94,-2.09 2.09,-2.09l0,0z" class="st0"/>
  </g>
 </g>
</svg>