<svg width="122.88" height="91.26" xmlns="http://www.w3.org/2000/svg" xml:space="preserve" version="1.1">

 <g>
  <title>Layer 1</title>
  <path id="svg_2" clip-rule="evenodd" fill-rule="evenodd" d="m8.32,0l106.24,0c4.58,0 8.32,3.74 8.32,8.32l0,74.62c0,4.57 -3.74,8.32 -8.32,8.32l-106.24,0c-4.58,0 -8.32,-3.75 -8.32,-8.32l0,-74.62c0,-4.58 3.74,-8.32 8.32,-8.32l0,0l0,0zm82.04,36.18l3.62,3.62c0.95,0.95 0.95,2.51 0,3.46l-2.91,2.91c0.8,1.5 1.42,3.12 1.81,4.82l3.77,0c1.35,0 2.45,1.1 2.45,2.45l0,5.11c0,1.35 -1.1,2.45 -2.45,2.45l-4.12,0c-0.5,1.67 -1.23,3.24 -2.13,4.68l2.67,2.67c0.95,0.95 0.95,2.51 0,3.46l-3.62,3.62c-0.95,0.95 -2.51,0.95 -3.46,0l-2.91,-2.91c-1.5,0.8 -3.12,1.42 -4.82,1.81l0,3.77c0,1.35 -1.1,2.45 -2.45,2.45l-5.11,0c-1.35,0 -2.45,-1.1 -2.45,-2.45l0,-4.12c-1.67,-0.5 -3.24,-1.23 -4.68,-2.13l-2.67,2.67c-0.95,0.95 -2.51,0.95 -3.46,0l-3.62,-3.62c-0.95,-0.95 -0.95,-2.51 0,-3.46l2.91,-2.91c-0.8,-1.5 -1.42,-3.12 -1.81,-4.82l-3.77,0c-1.35,0 -2.45,-1.1 -2.45,-2.45l0,-5.11c0,-1.34 1.1,-2.45 2.45,-2.45l4.12,0c0.51,-1.67 1.23,-3.24 2.13,-4.68l-2.67,-2.67c-0.95,-0.95 -0.95,-2.51 0,-3.46l3.62,-3.62c0.95,-0.95 2.51,-0.95 3.46,0l2.91,2.91c1.5,-0.8 3.12,-1.42 4.82,-1.81l0,-3.77c0,-1.35 1.1,-2.45 2.45,-2.45l5.11,0c1.35,0 2.45,1.1 2.45,2.45l0,4.11c1.67,0.5 3.24,1.23 4.68,2.13l2.67,-2.67c0.95,-0.94 2.5,-0.94 3.46,0.01l0,0l0,0zm-16.47,9.11c5.55,0 10.05,4.5 10.05,10.05s-4.5,10.05 -10.05,10.05c-5.55,0 -10.05,-4.5 -10.05,-10.05s4.5,-10.05 10.05,-10.05l0,0l0,0zm-20.41,-22l0,2.45c0,1.21 -0.99,2.21 -2.21,2.21l-3.71,0c-0.46,1.5 -1.11,2.92 -1.92,4.22l2.41,2.41c0.86,0.86 0.86,2.26 0,3.12l-3.26,3.26c-0.86,0.86 -2.26,0.86 -3.12,0l-2.62,-2.62c-1.35,0.72 -2.81,1.28 -4.34,1.63l0,3.4c0,1.21 -0.99,2.21 -2.21,2.21l-4.61,0c-1.21,0 -2.21,-0.99 -2.21,-2.21l0,-3.71c-1.5,-0.46 -2.92,-1.11 -4.22,-1.92l-2.41,2.41c-0.86,0.86 -2.26,0.86 -3.12,0l-3.26,-3.26c-0.86,-0.86 -0.86,-2.26 0,-3.12l2.62,-2.62c-0.72,-1.35 -1.28,-2.81 -1.63,-4.34l-3.4,0c-1.21,0 -2.21,-0.99 -2.21,-2.21l0,-1.29l-2.76,0l0,60.46c0,0.64 0.25,1.2 0.67,1.63c0.42,0.42 0.99,0.67 1.63,0.67l108.04,0c0.64,0 1.2,-0.25 1.63,-0.67c0.43,-0.43 0.67,-0.99 0.67,-1.63l0,-60.48l0.04,0l0,0l-64.49,0l0,0zm-31.76,0c0.23,4.8 4.19,8.63 9.05,8.63c4.86,0 8.82,-3.83 9.05,-8.63l-18.1,0l0,0z" class="st0"/>
 </g>
</svg>